<svg version="1" xmlns="http://www.w3.org/2000/svg" width="1125.333" height="1125.333" viewBox="0 0 844.000000 844.000000"><path d="M0 422v422h844V0H0v422zm529.6-235c5.8 2.5 12.1 8.5 15.2 14.4 2.1 4.2 2.6 6.5 2.6 13.1.1 6.8-.3 8.9-2.7 13.7-4.7 9.6-13.6 15.7-24.4 16.7l-6.2.6-14.9 19-14.9 19 3.3 5c12.1 18.3 1.7 42.3-20.2 46.4-9.9 1.9-22.6-2.6-28.3-9.8-5.6-7.2-6.6-10-6.6-19.6 0-7.8.4-9.8 2.6-14l2.5-5-16.9-11.1-16.8-11-5.6 1.9c-3.3 1.1-7.6 1.7-10.2 1.5l-4.5-.3-11.3 15.5c-6.3 8.5-13 17.9-15 20.8l-3.6 5.2 2.1 4.4c8 15.9 2 34.1-13.7 41.8-6.6 3.3-19.6 3.3-26.2 0-6.2-3-11.7-8.6-14.6-15-3.4-7.2-3-19.2.7-26.5 6.3-12.4 20.4-18.6 35.1-15.4l3.7.8 13.6-19c7.5-10.4 13.6-19.4 13.6-19.9s-.7-1.6-1.7-2.3c-.9-.8-2.9-4.1-4.5-7.4-2.2-4.7-2.8-7.4-2.8-12.6 0-9.6 2.3-15.4 8.9-22 7.2-7.1 13.2-9.4 23.5-8.7 11.9.8 19.5 5.9 25.3 17.2 3.3 6.4 3.7 16.6.9 23.9-1 2.7-1.7 5-1.5 5.1.2.2 8.1 5.3 17.4 11.3l17 10.9 10-.4 10-.4 7.5-9.6c4.1-5.3 10.3-13.3 13.8-17.8l6.3-8.1-3.2-3.4c-8.6-9.1-10.5-23.3-4.8-34.7 7.2-14.6 24.5-20.8 39.5-14.2zm141 224.1c5.9 1.1 14.4 3.2 18.8 4.6 8.7 2.7 22.6 9.1 22.6 10.4 0 .6-5.2 15.9-9.5 27.6-.3.9-1.3.8-3.7-.7-9.5-5.5-30.6-11.5-45.6-12.9-50.5-4.7-85.4 22.7-94.8 74.2-2.3 12.6-2.3 39.7 0 52.7 9.5 52.8 42.2 77.4 96.9 73 14.4-1.2 23.1-3.2 38.3-8.9 5.9-2.3 11.1-3.8 11.5-3.4.5.6 5.6 16.4 8.5 26.5 1 3.4-16.3 9.9-36.8 13.9-21.9 4.3-54.7 4.3-71.7 0-26.9-6.7-49.3-22.1-63.8-43.6-9.3-13.8-16.4-32-19.9-51-2.7-14.2-2.7-52-.1-65 9.7-47.5 38.1-81.1 79.7-94.3 8.3-2.6 13.2-3.6 27.5-5.6 6.9-1 31.9.5 42.1 2.5zM286 429v15H168v75h105v30H168v87h127v30H132V414h154v15zm89.2 95.7l.3 110.8 58.3.3 58.2.2v30H340V414h35l.2 110.7z"/><path d="M511.5 201c-5.6 2.3-10.1 10-8.9 15.4 3 14.3 20.8 17.3 27.5 4.6 3.5-6.6 1.5-14.2-5-18.6-3.7-2.5-9.6-3.1-13.6-1.4zM384.5 223.5c-13 4.6-13.2 22.5-.2 27.4 6.6 2.5 14-.4 17.7-7.1 6.3-11.2-5.3-24.5-17.5-20.3zM457 291.1c-3.8 1.5-7.8 5.8-9.1 9.6-3.2 9.9 6.4 20.8 16.7 18.8 4.8-.8 10.1-5.8 11.4-10.6 3.1-11.3-8.4-22-19-17.8zM322 314.8c-3.7 1.9-8 8.8-8 12.8 0 3.7 4.4 10.6 8 12.5 12.2 6.6 26.1-6 20.1-18.3-3.9-8.1-12.4-11-20.1-7z"/></svg>